<mxfile host="Electron" agent="Mozilla/5.0 (Windows NT 10.0; Win64; x64) AppleWebKit/537.36 (KHTML, like Gecko) draw.io/26.2.2 Chrome/134.0.6998.178 Electron/35.1.2 Safari/537.36" version="26.2.2">
  <diagram name="Page-1" id="Rsfbqpig5__nCPckkQue">
    <mxGraphModel dx="1641" dy="2198" grid="1" gridSize="10" guides="1" tooltips="1" connect="1" arrows="1" fold="1" page="1" pageScale="1" pageWidth="850" pageHeight="1100" math="0" shadow="0">
      <root>
        <mxCell id="0" />
        <mxCell id="1" parent="0" />
        <mxCell id="9UdOYAtEL5SA0IEKYXUz-1" value="Customer" style="shape=umlActor;verticalLabelPosition=bottom;verticalAlign=top;html=1;outlineConnect=0;" vertex="1" parent="1">
          <mxGeometry x="90" y="40" width="30" height="60" as="geometry" />
        </mxCell>
        <mxCell id="9UdOYAtEL5SA0IEKYXUz-9" value="Register" style="ellipse;whiteSpace=wrap;html=1;" vertex="1" parent="1">
          <mxGeometry x="-200" y="20" width="140" height="70" as="geometry" />
        </mxCell>
        <mxCell id="9UdOYAtEL5SA0IEKYXUz-11" value="" style="endArrow=open;endFill=1;endSize=12;html=1;rounded=0;exitX=0;exitY=0.3333333333333333;exitDx=0;exitDy=0;exitPerimeter=0;" edge="1" parent="1" source="9UdOYAtEL5SA0IEKYXUz-1" target="9UdOYAtEL5SA0IEKYXUz-9">
          <mxGeometry width="160" relative="1" as="geometry">
            <mxPoint x="10" y="240" as="sourcePoint" />
            <mxPoint x="-60" y="160" as="targetPoint" />
          </mxGeometry>
        </mxCell>
        <mxCell id="9UdOYAtEL5SA0IEKYXUz-12" value="Login" style="ellipse;whiteSpace=wrap;html=1;" vertex="1" parent="1">
          <mxGeometry x="-200" y="120" width="140" height="70" as="geometry" />
        </mxCell>
        <mxCell id="9UdOYAtEL5SA0IEKYXUz-14" value="" style="endArrow=open;endFill=1;endSize=12;html=1;rounded=0;exitX=0.5;exitY=0.5;exitDx=0;exitDy=0;exitPerimeter=0;" edge="1" parent="1" source="9UdOYAtEL5SA0IEKYXUz-1" target="9UdOYAtEL5SA0IEKYXUz-12">
          <mxGeometry width="160" relative="1" as="geometry">
            <mxPoint x="100" y="170" as="sourcePoint" />
            <mxPoint x="-50" y="240" as="targetPoint" />
          </mxGeometry>
        </mxCell>
        <mxCell id="9UdOYAtEL5SA0IEKYXUz-15" value="View Products" style="ellipse;whiteSpace=wrap;html=1;" vertex="1" parent="1">
          <mxGeometry x="-200" y="220" width="140" height="70" as="geometry" />
        </mxCell>
        <mxCell id="9UdOYAtEL5SA0IEKYXUz-16" value="Make purchase" style="ellipse;whiteSpace=wrap;html=1;" vertex="1" parent="1">
          <mxGeometry x="-200" y="320" width="140" height="70" as="geometry" />
        </mxCell>
        <object placeholders="1" c4Name="Online shopping system" c4Type="SystemScopeBoundary" c4Application="Software System" label="&lt;font style=&quot;font-size: 16px&quot;&gt;&lt;b&gt;&lt;div style=&quot;text-align: left&quot;&gt;%c4Name%&lt;/div&gt;&lt;/b&gt;&lt;/font&gt;&lt;div style=&quot;text-align: left&quot;&gt;[%c4Application%]&lt;/div&gt;" id="9UdOYAtEL5SA0IEKYXUz-21">
          <mxCell style="rounded=1;fontSize=11;whiteSpace=wrap;html=1;dashed=1;arcSize=20;fillColor=none;strokeColor=#666666;fontColor=#333333;labelBackgroundColor=none;align=left;verticalAlign=bottom;labelBorderColor=none;spacingTop=0;spacing=10;dashPattern=8 4;metaEdit=1;rotatable=0;perimeter=rectanglePerimeter;noLabel=0;labelPadding=0;allowArrows=0;connectable=0;expand=0;recursiveResize=0;editable=1;pointerEvents=0;absoluteArcSize=1;points=[[0.25,0,0],[0.5,0,0],[0.75,0,0],[1,0.25,0],[1,0.5,0],[1,0.75,0],[0.75,1,0],[0.5,1,0],[0.25,1,0],[0,0.75,0],[0,0.5,0],[0,0.25,0]];" vertex="1" parent="1">
            <mxGeometry x="-240" y="-10" width="265" height="620" as="geometry" />
          </mxCell>
        </object>
        <mxCell id="9UdOYAtEL5SA0IEKYXUz-28" value="Admin" style="shape=umlActor;verticalLabelPosition=bottom;verticalAlign=top;html=1;" vertex="1" parent="1">
          <mxGeometry x="-410" y="210" width="40" height="60" as="geometry" />
        </mxCell>
        <mxCell id="9UdOYAtEL5SA0IEKYXUz-29" value="Checkout" style="ellipse;whiteSpace=wrap;html=1;" vertex="1" parent="1">
          <mxGeometry x="-425" y="480" width="140" height="70" as="geometry" />
        </mxCell>
        <mxCell id="9UdOYAtEL5SA0IEKYXUz-30" value="Update Products" style="ellipse;whiteSpace=wrap;html=1;" vertex="1" parent="1">
          <mxGeometry x="-350" y="90" width="140" height="70" as="geometry" />
        </mxCell>
        <mxCell id="9UdOYAtEL5SA0IEKYXUz-31" value="" style="endArrow=open;endFill=1;endSize=12;html=1;rounded=0;exitX=0.5;exitY=0.5;exitDx=0;exitDy=0;exitPerimeter=0;" edge="1" parent="1" source="9UdOYAtEL5SA0IEKYXUz-1" target="9UdOYAtEL5SA0IEKYXUz-15">
          <mxGeometry width="160" relative="1" as="geometry">
            <mxPoint x="40" y="120" as="sourcePoint" />
            <mxPoint x="-60" y="230" as="targetPoint" />
          </mxGeometry>
        </mxCell>
        <mxCell id="9UdOYAtEL5SA0IEKYXUz-32" value="" style="endArrow=open;endFill=1;endSize=12;html=1;rounded=0;" edge="1" parent="1">
          <mxGeometry width="160" relative="1" as="geometry">
            <mxPoint x="100" y="80" as="sourcePoint" />
            <mxPoint x="-70" y="340" as="targetPoint" />
          </mxGeometry>
        </mxCell>
        <mxCell id="9UdOYAtEL5SA0IEKYXUz-38" value="" style="endArrow=block;dashed=1;endFill=0;endSize=12;html=1;rounded=0;exitX=0.286;exitY=1;exitDx=0;exitDy=0;exitPerimeter=0;" edge="1" parent="1" source="9UdOYAtEL5SA0IEKYXUz-16" target="9UdOYAtEL5SA0IEKYXUz-29">
          <mxGeometry width="160" relative="1" as="geometry">
            <mxPoint x="-270" y="420" as="sourcePoint" />
            <mxPoint x="-110" y="420" as="targetPoint" />
          </mxGeometry>
        </mxCell>
        <mxCell id="9UdOYAtEL5SA0IEKYXUz-39" value="" style="endArrow=block;dashed=1;endFill=0;endSize=12;html=1;rounded=0;exitX=0.5;exitY=1;exitDx=0;exitDy=0;" edge="1" parent="1" source="9UdOYAtEL5SA0IEKYXUz-15" target="9UdOYAtEL5SA0IEKYXUz-16">
          <mxGeometry width="160" relative="1" as="geometry">
            <mxPoint x="-130" y="290" as="sourcePoint" />
            <mxPoint x="-230" y="320" as="targetPoint" />
          </mxGeometry>
        </mxCell>
        <mxCell id="9UdOYAtEL5SA0IEKYXUz-47" value="" style="endArrow=block;dashed=1;endFill=0;endSize=12;html=1;rounded=0;entryX=0.304;entryY=0.848;entryDx=0;entryDy=0;entryPerimeter=0;exitX=0.5;exitY=0.5;exitDx=0;exitDy=0;exitPerimeter=0;" edge="1" parent="1" source="9UdOYAtEL5SA0IEKYXUz-28" target="9UdOYAtEL5SA0IEKYXUz-30">
          <mxGeometry width="160" relative="1" as="geometry">
            <mxPoint x="-250" y="370" as="sourcePoint" />
            <mxPoint x="-90" y="370" as="targetPoint" />
          </mxGeometry>
        </mxCell>
        <mxCell id="9UdOYAtEL5SA0IEKYXUz-48" value="" style="endArrow=open;endFill=1;endSize=12;html=1;rounded=0;exitX=1;exitY=1;exitDx=0;exitDy=0;entryX=0.094;entryY=0.363;entryDx=0;entryDy=0;entryPerimeter=0;" edge="1" parent="1" source="9UdOYAtEL5SA0IEKYXUz-30" target="9UdOYAtEL5SA0IEKYXUz-15">
          <mxGeometry width="160" relative="1" as="geometry">
            <mxPoint x="-250" y="370" as="sourcePoint" />
            <mxPoint x="-90" y="370" as="targetPoint" />
          </mxGeometry>
        </mxCell>
        <mxCell id="9UdOYAtEL5SA0IEKYXUz-49" value="View Order Status" style="ellipse;whiteSpace=wrap;html=1;" vertex="1" parent="1">
          <mxGeometry x="-170" y="460" width="140" height="70" as="geometry" />
        </mxCell>
        <mxCell id="9UdOYAtEL5SA0IEKYXUz-50" value="" style="endArrow=block;dashed=1;endFill=0;endSize=12;html=1;rounded=0;exitX=0.936;exitY=0.662;exitDx=0;exitDy=0;exitPerimeter=0;entryX=0;entryY=0.5;entryDx=0;entryDy=0;" edge="1" parent="1" source="9UdOYAtEL5SA0IEKYXUz-29" target="9UdOYAtEL5SA0IEKYXUz-49">
          <mxGeometry width="160" relative="1" as="geometry">
            <mxPoint x="-250" y="370" as="sourcePoint" />
            <mxPoint x="-90" y="370" as="targetPoint" />
          </mxGeometry>
        </mxCell>
      </root>
    </mxGraphModel>
  </diagram>
</mxfile>
